<mxfile host="65bd71144e">
    <diagram id="P2Lockhl9aWTjdH21IzR" name="Page-1">
        <mxGraphModel dx="791" dy="1586" grid="1" gridSize="10" guides="1" tooltips="1" connect="1" arrows="1" fold="1" page="1" pageScale="1" pageWidth="850" pageHeight="1100" math="0" shadow="0">
            <root>
                <mxCell id="0"/>
                <mxCell id="1" parent="0"/>
                <mxCell id="3" value="" style="whiteSpace=wrap;html=1;fillColor=default;strokeColor=#FFFF33;strokeWidth=7;fontStyle=1" parent="1" vertex="1">
                    <mxGeometry x="40" width="650" height="490" as="geometry"/>
                </mxCell>
                <mxCell id="4" value="&lt;font color=&quot;#ffff33&quot; style=&quot;font-size: 32px;&quot;&gt;App.js&lt;/font&gt;" style="text;html=1;resizable=0;autosize=1;align=center;verticalAlign=middle;points=[];fillColor=none;strokeColor=none;rounded=0;fontSize=32;" parent="1" vertex="1">
                    <mxGeometry x="290" y="-5" width="110" height="50" as="geometry"/>
                </mxCell>
                <mxCell id="5" value="Data&lt;br&gt;posts = [ ]" style="text;html=1;resizable=0;autosize=1;align=center;verticalAlign=middle;points=[];fillColor=none;strokeColor=none;rounded=0;fontSize=26;fontColor=#FFFF33;" parent="1" vertex="1">
                    <mxGeometry x="80" y="45" width="130" height="70" as="geometry"/>
                </mxCell>
                <mxCell id="8" value="" style="whiteSpace=wrap;html=1;fontSize=26;fontColor=#00FF00;strokeColor=#00FF00;strokeWidth=7;fillColor=#333333;" parent="1" vertex="1">
                    <mxGeometry x="70" y="120" width="590" height="350" as="geometry"/>
                </mxCell>
                <mxCell id="7" value="State&lt;br&gt;&lt;div style=&quot;text-align: left;&quot;&gt;&lt;span style=&quot;background-color: initial;&quot;&gt;blogs, setBlogs = [ ]&lt;/span&gt;&lt;/div&gt;&lt;div style=&quot;text-align: left;&quot;&gt;&lt;span style=&quot;background-color: initial;&quot;&gt;newBlog, setNewBlog = { }&lt;/span&gt;&lt;/div&gt;" style="text;html=1;resizable=0;autosize=1;align=center;verticalAlign=middle;points=[];fillColor=none;strokeColor=none;rounded=0;fontSize=26;fontColor=#33FF33;" parent="1" vertex="1">
                    <mxGeometry x="310" y="165" width="330" height="110" as="geometry"/>
                </mxCell>
                <mxCell id="9" value="Blog.js" style="text;html=1;resizable=0;autosize=1;align=center;verticalAlign=middle;points=[];fillColor=none;strokeColor=none;rounded=0;fontSize=30;fontColor=#00FF00;" parent="1" vertex="1">
                    <mxGeometry x="290" y="125" width="110" height="50" as="geometry"/>
                </mxCell>
                <mxCell id="10" value="Props&lt;br&gt;posts={posts}" style="text;html=1;resizable=0;autosize=1;align=center;verticalAlign=middle;points=[];fillColor=none;strokeColor=none;rounded=0;fontSize=26;fontColor=#00FF00;" parent="1" vertex="1">
                    <mxGeometry x="80" y="185" width="170" height="70" as="geometry"/>
                </mxCell>
                <mxCell id="12" value="" style="whiteSpace=wrap;html=1;fontSize=26;fontColor=#FFFFFF;strokeColor=#FFFFFF;strokeWidth=7;fillColor=#666666;" parent="1" vertex="1">
                    <mxGeometry x="160" y="280" width="410" height="170" as="geometry"/>
                </mxCell>
                <mxCell id="13" value="BlogForm.js&lt;br style=&quot;font-size: 28px;&quot;&gt;" style="text;html=1;resizable=0;autosize=1;align=center;verticalAlign=middle;points=[];fillColor=none;strokeColor=none;rounded=0;fontSize=28;fontColor=#FFFFFF;" parent="1" vertex="1">
                    <mxGeometry x="260" y="280" width="170" height="50" as="geometry"/>
                </mxCell>
                <mxCell id="6" value="Functions&lt;br&gt;&lt;div style=&quot;text-align: left;&quot;&gt;&lt;span style=&quot;background-color: initial;&quot;&gt;handleTextChange( )&lt;/span&gt;&lt;/div&gt;&lt;div style=&quot;text-align: left;&quot;&gt;&lt;span style=&quot;background-color: initial;&quot;&gt;handleSubmit( )&lt;/span&gt;&lt;/div&gt;" style="text;html=1;resizable=0;autosize=1;align=center;verticalAlign=middle;points=[];fillColor=none;strokeColor=none;rounded=0;fontSize=26;fontColor=#FFFFFF;" parent="1" vertex="1">
                    <mxGeometry x="215" y="340" width="260" height="110" as="geometry"/>
                </mxCell>
            </root>
        </mxGraphModel>
    </diagram>
</mxfile>